<mxfile host="drawio-plugin" modified="2023-09-02T00:20:43.848Z" agent="5.0 (X11; Linux x86_64) AppleWebKit/537.36 (KHTML, like Gecko) Chrome/104.0.5112.102 Safari/537.36" version="20.5.3" etag="0lXONp8WOhhW2pNdlJUY" type="embed"><diagram id="hA_WVQC7q21Un9KD6-ER" name="Page-1"><mxGraphModel dx="643" dy="453" grid="1" gridSize="10" guides="1" tooltips="1" connect="1" arrows="1" fold="1" page="1" pageScale="1" pageWidth="850" pageHeight="1100" math="0" shadow="0"><root><mxCell id="0"/><mxCell id="1" parent="0"/><mxCell id="3" value="VIEW" style="whiteSpace=wrap;html=1;aspect=fixed;" vertex="1" parent="1"><mxGeometry x="140" y="110" width="100" height="100" as="geometry"/></mxCell><mxCell id="5" value="" style="edgeStyle=orthogonalEdgeStyle;rounded=0;orthogonalLoop=1;jettySize=auto;html=1;" edge="1" parent="1" source="4" target="7"><mxGeometry relative="1" as="geometry"/></mxCell><mxCell id="4" value="Actor" style="shape=umlActor;verticalLabelPosition=bottom;verticalAlign=top;html=1;outlineConnect=0;" vertex="1" parent="1"><mxGeometry x="80" y="270" width="30" height="60" as="geometry"/></mxCell><mxCell id="7" value="HTTP" style="shape=step;perimeter=stepPerimeter;whiteSpace=wrap;html=1;fixedSize=1;" vertex="1" parent="1"><mxGeometry x="280" y="120" width="120" height="80" as="geometry"/></mxCell><mxCell id="8" value="CONTROLLER&lt;br&gt;(REQUEST)" style="whiteSpace=wrap;html=1;aspect=fixed;" vertex="1" parent="1"><mxGeometry x="440" y="110" width="100" height="100" as="geometry"/></mxCell></root></mxGraphModel></diagram></mxfile>